ffmpeg version 4.2.7-0ubuntu0.1 Copyright (c) 2000-2022 the FFmpeg developers
  built with gcc 9 (Ubuntu 9.4.0-1ubuntu1~20.04.1)
  configuration: --prefix=/usr --extra-version=0ubuntu0.1 --toolchain=hardened --libdir=/usr/lib/x86_64-linux-gnu --incdir=/usr/include/x86_64-linux-gnu --arch=amd64 --enable-gpl --disable-stripping --enable-avresample --disable-filter=resample --enable-avisynth --enable-gnutls --enable-ladspa --enable-libaom --enable-libass --enable-libbluray --enable-libbs2b --enable-libcaca --enable-libcdio --enable-libcodec2 --enable-libflite --enable-libfontconfig --enable-libfreetype --enable-libfribidi --enable-libgme --enable-libgsm --enable-libjack --enable-libmp3lame --enable-libmysofa --enable-libopenjpeg --enable-libopenmpt --enable-libopus --enable-libpulse --enable-librsvg --enable-librubberband --enable-libshine --enable-libsnappy --enable-libsoxr --enable-libspeex --enable-libssh --enable-libtheora --enable-libtwolame --enable-libvidstab --enable-libvorbis --enable-libvpx --enable-libwavpack --enable-libwebp --enable-libx265 --enable-libxml2 --enable-libxvid --enable-libzmq --enable-libzvbi --enable-lv2 --enable-omx --enable-openal --enable-opencl --enable-opengl --enable-sdl2 --enable-libdc1394 --enable-libdrm --enable-libiec61883 --enable-nvenc --enable-chromaprint --enable-frei0r --enable-libx264 --enable-shared
  libavutil      56. 31.100 / 56. 31.100
  libavcodec     58. 54.100 / 58. 54.100
  libavformat    58. 29.100 / 58. 29.100
  libavdevice    58.  8.100 / 58.  8.100
  libavfilter     7. 57.100 /  7. 57.100
  libavresample   4.  0.  0 /  4.  0.  0
  libswscale      5.  5.100 /  5.  5.100
  libswresample   3.  5.100 /  3.  5.100
  libpostproc    55.  5.100 / 55.  5.100
Routing option strict to both codec and muxer layer
[h264 @ 0x562545fc2d80] Reinit context to 848x480, pix_fmt: yuv420p
Input #0, mov,mp4,m4a,3gp,3g2,mj2, from '/var/www/html/project/media/video/original/WhatsApp_Video_2023-08-20_at_07.38.36.mp4':
  Metadata:
    major_brand     : mp42
    minor_version   : 0
    compatible_brands: mp42isom
  Duration: 00:00:07.32, start: 0.000000, bitrate: 2108 kb/s
    Stream #0:0(und): Video: h264 (Baseline), 1 reference frame (avc1 / 0x31637661), yuv420p(tv, bt709, left), 848x480, 1915 kb/s, 30.04 fps, 30 tbr, 90k tbn, 180k tbc (default)
    Stream #0:1(und): Audio: aac (LC) (mp4a / 0x6134706D), 48000 Hz, mono, fltp, 192 kb/s (default)
Input #1, png_pipe, from '/var/www/html/project/static/images/templates/logo.png':
  Duration: N/A, bitrate: N/A
    Stream #1:0: Video: png, 1 reference frame, rgba(pc), 1920x1080 [SAR 2835:2835 DAR 16:9], 25 tbr, 25 tbn, 25 tbc
[Parsed_scale_0 @ 0x562546141640] w:1280 h:720 flags:'bilinear' interl:0
[Parsed_scale_2 @ 0x562545fec340] w:1280 h:720 flags:'bilinear' interl:0
Stream mapping:
  Stream #0:0 (h264) -> scale (graph 0)
  Stream #1:0 (png) -> scale (graph 0)
  overlay (graph 0) -> Stream #0:0 (libx264)
  Stream #0:1 -> #0:1 (aac (native) -> aac (native))
Press [q] to stop, [?] for help
[h264 @ 0x562546140280] Reinit context to 848x480, pix_fmt: yuv420p
[graph_1_in_0_1 @ 0x56254651b5c0] tb:1/48000 samplefmt:fltp samplerate:48000 chlayout:0x4
[Parsed_scale_0 @ 0x5625466b2480] w:1280 h:720 flags:'bilinear' interl:0
[Parsed_scale_2 @ 0x5625466b5fc0] w:1280 h:720 flags:'bilinear' interl:0
[graph 0 input from stream 0:0 @ 0x5625466b8400] w:848 h:480 pixfmt:yuv420p tb:1/90000 fr:30/1 sar:0/1 sws_param:flags=2
[graph 0 input from stream 1:0 @ 0x5625466b9440] w:1920 h:1080 pixfmt:rgba tb:1/25 fr:25/1 sar:2835/2835 sws_param:flags=2
[Parsed_scale_0 @ 0x5625466b2480] w:848 h:480 fmt:yuv420p sar:0/1 -> w:1280 h:720 fmt:yuv420p sar:0/1 flags:0x2
[Parsed_setsar_1 @ 0x5625466b5480] w:1280 h:720 sar:0/1 dar:16/9 -> sar:1/1 dar:16/9
[Parsed_scale_2 @ 0x5625466b5fc0] w:1920 h:1080 fmt:rgba sar:2835/2835 -> w:1280 h:720 fmt:yuva420p sar:1/1 flags:0x2
[Parsed_setsar_3 @ 0x5625466b6a80] w:1280 h:720 sar:1/1 dar:16/9 -> sar:1/1 dar:16/9
[Parsed_overlay_4 @ 0x5625466b7680] main w:1280 h:720 fmt:yuv420p overlay w:1280 h:720 fmt:yuva420p
[Parsed_overlay_4 @ 0x5625466b7680] [framesync @ 0x5625466b77a8] Selected 1/90000 time base
[Parsed_overlay_4 @ 0x5625466b7680] [framesync @ 0x5625466b77a8] Sync level 2
[libx264 @ 0x562545feba00] using SAR=1/1
[libx264 @ 0x562545feba00] using cpu capabilities: MMX2 SSE2Fast SSSE3 SSE4.2 AVX FMA3 BMI2 AVX2
[libx264 @ 0x562545feba00] profile High, level 3.1
[libx264 @ 0x562545feba00] 264 - core 155 r2917 0a84d98 - H.264/MPEG-4 AVC codec - Copyleft 2003-2018 - http://www.videolan.org/x264.html - options: cabac=1 ref=1 deblock=1:0:0 analyse=0x3:0x113 me=hex subme=2 psy=1 psy_rd=1.00:0.00 mixed_ref=0 me_range=16 chroma_me=1 trellis=0 8x8dct=1 cqm=0 deadzone=21,11 fast_pskip=1 chroma_qp_offset=0 threads=22 lookahead_threads=5 sliced_threads=0 nr=0 decimate=1 interlaced=0 bluray_compat=0 constrained_intra=0 bframes=3 b_pyramid=2 b_adapt=1 b_bias=0 direct=1 weightb=1 open_gop=0 weightp=1 keyint=250 keyint_min=25 scenecut=40 intra_refresh=0 rc_lookahead=10 rc=crf mbtree=1 crf=18.0 qcomp=0.60 qpmin=0 qpmax=69 qpstep=4 ip_ratio=1.40 aq=1:1.00
Output #0, mp4, to '/var/www/html/project/media/video/watermarks/WhatsApp_Video_2023-08-20_at_07.38.36.mp4':
  Metadata:
    major_brand     : mp42
    minor_version   : 0
    compatible_brands: mp42isom
    encoder         : Lavf58.29.100
    Stream #0:0: Video: h264 (libx264), 1 reference frame (avc1 / 0x31637661), yuv420p, 1280x720 [SAR 1:1 DAR 16:9], q=-1--1, 30 fps, 15360 tbn, 30 tbc (default)
    Metadata:
      encoder         : Lavc58.54.100 libx264
    Side data:
      cpb: bitrate max/min/avg: 0/0/0 buffer size: 0 vbv_delay: -1
    Stream #0:1(und): Audio: aac (LC) (mp4a / 0x6134706D), 48000 Hz, mono, fltp, delay 1024, 69 kb/s (default)
    Metadata:
      encoder         : Lavc58.54.100 aac
[Parsed_overlay_4 @ 0x5625466b7680] [framesync @ 0x5625466b77a8] Sync level 0
No more output streams to write to, finishing.
frame=  219 fps= 81 q=-1.0 Lsize=    5318kB time=00:00:07.31 bitrate=5954.0kbits/s speed=2.72x    
[AVIOContext @ 0x562545fc10c0] Statistics: 0 seeks, 6 writeouts
video:5232kB audio:77kB subtitle:0kB other streams:0kB global headers:0kB muxing overhead: 0.173071%
Input file #0 (/var/www/html/project/media/video/original/WhatsApp_Video_2023-08-20_at_07.38.36.mp4):
  Input stream #0:0 (video): 219 packets read (1745533 bytes); 219 frames decoded; 
  Input stream #0:1 (audio): 343 packets read (175617 bytes); 343 frames decoded (351232 samples); 
  Total: 562 packets (1921150 bytes) demuxed
Input file #1 (/var/www/html/project/static/images/templates/logo.png):
  Input stream #1:0 (video): 1 packets read (111578 bytes); 1 frames decoded; 
  Total: 1 packets (111578 bytes) demuxed
Output file #0 (/var/www/html/project/media/video/watermarks/WhatsApp_Video_2023-08-20_at_07.38.36.mp4):
  Output stream #0:0 (video): 219 frames encoded; 219 packets muxed (5357161 bytes); 
  Output stream #0:1 (audio): 343 frames encoded (351232 samples); 344 packets muxed (79351 bytes); 
  Total: 563 packets (5436512 bytes) muxed
[AVIOContext @ 0x562545fc7fc0] Statistics: 2 seeks, 24 writeouts
[libx264 @ 0x562545feba00] frame I:1     Avg QP:17.60  size: 54755
[libx264 @ 0x562545feba00] frame P:55    Avg QP:17.71  size: 42030
[libx264 @ 0x562545feba00] frame B:163   Avg QP:19.49  size: 18344
[libx264 @ 0x562545feba00] consecutive B-frames:  0.5%  0.0%  2.7% 96.8%
[libx264 @ 0x562545feba00] mb I  I16..4: 28.9% 34.4% 36.7%
[libx264 @ 0x562545feba00] mb P  I16..4: 22.3% 23.3%  8.2%  P16..4: 18.7% 12.4%  9.6%  0.0%  0.0%    skip: 5.5%
[libx264 @ 0x562545feba00] mb B  I16..4:  3.5%  2.1%  0.8%  B16..8: 28.0% 14.7%  4.1%  direct:15.5%  skip:31.3%  L0:41.0% L1:42.7% BI:16.3%
[libx264 @ 0x562545feba00] 8x8 transform intra:40.5% inter:30.1%
[libx264 @ 0x562545feba00] coded y,uvDC,uvAC intra: 39.1% 51.9% 14.6% inter: 20.9% 36.1% 0.5%
[libx264 @ 0x562545feba00] i16 v,h,dc,p: 35% 49%  8%  8%
[libx264 @ 0x562545feba00] i8 v,h,dc,ddl,ddr,vr,hd,vl,hu: 19% 41% 20%  3%  3%  3%  4%  3%  4%
[libx264 @ 0x562545feba00] i4 v,h,dc,ddl,ddr,vr,hd,vl,hu: 24% 45%  9%  3%  3%  3%  5%  3%  5%
[libx264 @ 0x562545feba00] i8c dc,h,v,p: 53% 26% 16%  5%
[libx264 @ 0x562545feba00] Weighted P-Frames: Y:9.1% UV:5.5%
[libx264 @ 0x562545feba00] kb/s:5870.11
[aac @ 0x562545ff8000] Qavg: 1701.685
[AVIOContext @ 0x562545fca040] Statistics: 1960498 bytes read, 2 seeks
[AVIOContext @ 0x562546144400] Statistics: 111578 bytes read, 0 seeks
